<svg width="138" height="128" viewBox="0 0 138 128" fill="none" xmlns="http://www.w3.org/2000/svg">
<path fill-rule="evenodd" clip-rule="evenodd" d="M40.0492 43.8555C41.9263 38.4222 43.9968 35.1333 48.3751 31.5933C49.05 31.0476 48.8143 31.0638 48.9453 30.1128C49.0252 29.5329 49.1695 28.9933 49.2084 28.3609C49.4358 24.6685 47.9243 23.1363 47.6367 21.8325C50.0573 22.1847 51.8257 23.0264 53.566 24.4775C53.895 24.7518 54.6503 25.6026 54.8153 26.0366C55.3044 25.8851 56.2136 25.2019 56.6683 24.9041L58.1622 23.9102C58.2768 23.8128 58.2598 23.8233 58.339 23.7331C57.6252 22.4849 56.139 21.1248 55.0018 20.3445C52.7484 18.7984 47.316 16.5186 44.8944 18.314C43.7672 19.1497 42.6473 20.8472 43.4742 22.9196C44.0287 24.3095 45.2588 25.4281 45.1418 27.9383C45.0695 29.4873 44.6885 29.2544 43.8837 30.0196C41.7516 32.0467 39.5512 34.9016 38.1711 37.5643C37.9304 38.0288 37.4345 39.4395 37.0535 39.7018C34.4779 39.7018 33.0694 40.5638 32.0846 42.0432C30.9618 43.7302 31.2788 46.1809 31.2788 48.4055C31.2788 50.6362 30.9584 53.1926 32.0774 54.8835C33.5927 57.1732 35.1893 56.9918 37.0117 57.1742C37.7917 59.0229 38.4172 60.2026 39.317 61.7662C39.7003 62.4322 40.2778 63.2254 40.7279 63.8053C41.0296 64.1939 41.207 64.4188 41.4863 64.7722C43.8401 67.7509 47.5711 69.3454 47.565 74.0475C47.5616 76.6286 47.5728 78.0342 49.3109 79.1464C50.7138 80.0441 53.631 79.7318 55.4948 79.7318C57.0562 79.7318 60.902 79.9166 62.1808 79.647C63.2502 79.4216 63.7745 78.9318 64.328 78.3487C65.0185 77.6212 65.0023 77.0286 65.2394 75.936L68.9752 75.8707C69.2658 76.6814 69.0185 77.0113 69.6043 77.9425C69.9558 78.5013 70.3694 78.924 70.9821 79.2601C72.275 79.9692 74.2804 79.7315 75.9232 79.7316L75.9109 75.5685H73.1544L73.1479 71.1717C72.3135 71.1887 71.1464 71.4591 70.2649 71.5683C66.7466 72.0038 64.4032 71.6288 60.9851 71.3246V75.5689L51.859 75.5337C51.859 72.5109 51.668 70.8295 50.4028 68.469C49.055 65.9543 48.0763 65.6441 46.3842 63.9717C42.9158 60.5439 41.6063 58.0322 40.1392 53.1878C39.0495 53.081 36.3695 53.4969 35.7569 52.8237C35.2722 52.2909 35.4849 49.3367 35.4849 48.4055C35.4849 43.0422 34.7217 43.7199 40.0492 43.8555Z" fill="#FF0096" stroke="#FF0096"/>
<path fill-rule="evenodd" clip-rule="evenodd" d="M84.2487 65.2964L102.191 65.2961L102.592 65.3255L102.591 75.5333L102.192 75.576L84.2488 75.5686L84.2487 65.2964ZM88.4537 61.1338C88.4537 58.9541 88.1608 56.7083 89.2152 55.0514C89.9782 53.8523 91.4807 52.6828 93.5659 52.723C95.5688 52.7618 97.1034 53.9681 97.7883 55.1761C98.7575 56.8854 98.4752 58.9597 98.4753 61.1306L88.4537 61.1338ZM80.1368 79.6421L106.885 79.5951L106.877 61.1431L102.77 61.0887C102.77 56.8159 103.016 55.049 100.802 52.0579C97.6153 47.7535 90.4483 47.0269 86.1815 52.1274C84.1246 54.5862 84.2487 57.3007 84.2488 61.1247L80.1328 61.1767L80.1368 79.6421Z" fill="#FF0096" stroke="#FF0096"/>
<path fill-rule="evenodd" clip-rule="evenodd" d="M91.4067 38.936C91.7553 38.8117 94.5697 37.0312 94.8404 36.7697C94.6253 36.2266 92.6696 33.4133 92.2694 33.0212C91.7727 33.257 91.0172 33.7936 90.5141 34.1538C89.9685 34.5445 89.3628 34.9326 88.8433 35.259L91.4067 38.936Z" fill="#FF0096" stroke="#FF0096"/>
<path fill-rule="evenodd" clip-rule="evenodd" d="M86.8724 33.2974C87.4365 32.5524 89.2111 30.6764 89.5001 30.0428C88.9301 29.728 88.2871 29.1128 87.6789 28.6422C87.2641 28.3212 86.3423 27.433 85.9066 27.2874L83.4128 30.4129C84.0167 30.9506 84.6633 31.3238 85.2054 31.8666L86.8724 33.2974Z" fill="#FF0096" stroke="#FF0096"/>
<path fill-rule="evenodd" clip-rule="evenodd" d="M74.4675 22.2431C73.5982 22.1209 70.5758 21.4385 70.0077 21.5325L69.4255 25.529L73.7905 26.2862L74.4675 22.2431Z" fill="#FF0096" stroke="#FF0096"/>
<path fill-rule="evenodd" clip-rule="evenodd" d="M82.4352 25.086L78.3749 23.3479C78.0366 23.8569 77.0102 26.3774 76.7738 27.0731C76.9764 27.2591 80.32 28.7436 80.7698 28.8709L82.4352 25.086Z" fill="#FF0096" stroke="#FF0096"/>
<path fill-rule="evenodd" clip-rule="evenodd" d="M61.679 21.6291C61.5511 22.3021 61.9077 24.9015 61.9631 25.7995L66.2613 25.4317L66.0034 21.2825L61.679 21.6291Z" fill="#FF0096" stroke="#FF0096"/>
<path fill-rule="evenodd" clip-rule="evenodd" d="M92.5236 41.5491C92.5385 41.6789 93.6081 45.5511 93.6796 45.7121L97.6815 44.7488L96.4655 40.5125L92.5236 41.5491Z" fill="#FF0096" stroke="#FF0096"/>
<path d="M8.66271 120.108C9.16138 119.36 9.57205 118.663 9.89471 118.018C10.232 117.373 10.5547 116.625 10.8627 115.774C11.904 116.375 13.114 116.845 14.4927 117.182C15.8714 117.519 17.1547 117.688 18.3427 117.688C19.56 117.688 20.418 117.585 20.9167 117.38C21.4154 117.16 21.6647 116.925 21.6647 116.676C21.6647 115.781 20.3007 115.334 17.5727 115.334C14.5807 115.334 12.41 115.026 11.0607 114.41C9.71138 113.779 9.03671 112.767 9.03671 111.374C9.03671 109.394 9.85805 107.935 11.5007 106.996C13.1434 106.057 15.2774 105.588 17.9027 105.588C19.428 105.588 20.99 105.786 22.5887 106.182C24.202 106.563 25.654 107.091 26.9447 107.766C26.5194 108.734 26.072 109.915 25.6027 111.308C25.5147 111.601 25.4414 111.821 25.3827 111.968C24.6347 111.367 23.5054 110.868 21.9947 110.472C20.484 110.061 19.1494 109.856 17.9907 109.856C16.5974 109.856 15.6587 109.951 15.1747 110.142C14.6907 110.318 14.4487 110.582 14.4487 110.934C14.4487 111.286 14.7787 111.572 15.4387 111.792C16.1134 111.997 17.0814 112.1 18.3427 112.1C21.452 112.1 23.7107 112.459 25.1187 113.178C26.5267 113.882 27.2307 114.967 27.2307 116.434C27.2307 118.487 26.4827 119.969 24.9867 120.878C23.4907 121.773 21.2247 122.22 18.1887 122.22C16.5607 122.22 14.9034 122.044 13.2167 121.692C11.53 121.325 10.012 120.797 8.66271 120.108ZM41.1969 118.612L43.0889 109.988H47.4669L45.0249 122H39.1509L37.7649 116.39L36.2029 122H30.5489L28.1069 109.988H32.4849L34.3549 118.59L35.6309 109.988H39.9649L41.1969 118.612ZM51.2924 108.69C50.3684 108.69 49.679 108.463 49.2244 108.008C48.7844 107.553 48.5644 106.959 48.5644 106.226C48.5644 105.507 48.7844 104.913 49.2244 104.444C49.679 103.975 50.3684 103.74 51.2924 103.74C52.1724 103.74 52.847 103.982 53.3164 104.466C53.7857 104.935 54.0204 105.522 54.0204 106.226C54.0204 106.959 53.793 107.553 53.3384 108.008C52.8837 108.463 52.2017 108.69 51.2924 108.69ZM48.7404 122C48.843 119.639 48.8944 117.688 48.8944 116.148C48.8944 114.315 48.8357 112.261 48.7184 109.988H53.9984C53.881 112.173 53.8224 114.227 53.8224 116.148C53.8224 117.761 53.8737 119.712 53.9764 122H48.7404ZM60.8548 108.976C60.8255 109.049 60.8108 109.145 60.8108 109.262C60.8108 109.497 60.9061 109.687 61.0968 109.834C61.3021 109.966 61.5808 110.032 61.9328 110.032H64.8368V113.926C63.6195 113.823 62.6515 113.765 61.9328 113.75C61.9475 116.478 62.0061 119.228 62.1088 122H56.8948C56.9095 120.269 56.9168 117.541 56.9168 113.816C56.6088 113.831 56.0808 113.867 55.3328 113.926V110.032H56.8948V109.614C56.8948 108.47 57.1295 107.495 57.5988 106.688C58.0681 105.881 58.7135 105.273 59.5348 104.862C60.3708 104.451 61.3241 104.246 62.3948 104.246C63.2601 104.246 64.1328 104.371 65.0128 104.62C64.7195 105.691 64.4261 107.033 64.1328 108.646L64.0008 109.306C63.6781 109.027 63.3188 108.822 62.9228 108.69C62.5415 108.543 62.1895 108.47 61.8668 108.47C61.6028 108.47 61.3828 108.514 61.2068 108.602C61.0308 108.69 60.9135 108.815 60.8548 108.976ZM76.2928 113.926C74.9434 113.838 73.7114 113.772 72.5968 113.728L72.5748 116.06C72.5748 116.852 72.7434 117.475 73.0808 117.93C73.4328 118.37 74.0488 118.59 74.9288 118.59C75.2661 118.59 75.5888 118.561 75.8968 118.502C75.8381 119.045 75.8088 119.595 75.8088 120.152C75.8088 120.416 75.8234 121.017 75.8528 121.956C75.2074 122.073 74.6648 122.147 74.2248 122.176C73.7848 122.205 73.2128 122.22 72.5088 122.22C70.7928 122.22 69.5754 121.809 68.8568 120.988C68.1528 120.152 67.8008 118.993 67.8008 117.512L67.8228 113.794C67.1334 113.823 66.4148 113.867 65.6668 113.926V110.032C66.4294 110.032 67.0748 109.79 67.6028 109.306C68.1308 108.822 68.4461 108.243 68.5488 107.568H74.5328C73.7848 108.595 72.9561 109.416 72.0468 110.032H76.2928V113.926ZM87.5941 106.05C90.5127 106.05 92.5441 106.571 93.6881 107.612C94.8321 108.639 95.4041 110.091 95.4041 111.968C95.4041 113.259 95.1767 114.359 94.7221 115.268C94.2674 116.163 93.4681 116.867 92.3241 117.38C91.1801 117.879 89.6034 118.128 87.5941 118.128H83.0181V122H77.6061C77.7234 119.155 77.7821 116.493 77.7821 114.014C77.7821 111.535 77.7234 108.873 77.6061 106.028H83.0181V106.05H87.5941ZM86.0541 113.882C87.2714 113.882 88.1807 113.838 88.7821 113.75C89.3981 113.647 89.8234 113.471 90.0581 113.222C90.3074 112.973 90.4321 112.606 90.4321 112.122C90.4321 111.638 90.3147 111.279 90.0801 111.044C89.8601 110.795 89.4421 110.626 88.8261 110.538C88.2247 110.45 87.3007 110.406 86.0541 110.406H83.0181V113.882H86.0541ZM111.259 118.348C111.259 118.847 111.318 119.199 111.435 119.404C111.552 119.609 111.787 119.756 112.139 119.844L112.051 121.912C111.582 121.985 111.171 122.037 110.819 122.066C110.482 122.095 110.027 122.11 109.455 122.11C108.194 122.11 107.358 121.831 106.947 121.274C106.536 120.702 106.331 119.976 106.331 119.096V118.546C105.906 119.749 105.282 120.643 104.461 121.23C103.654 121.817 102.62 122.11 101.359 122.11C99.8922 122.11 98.7849 121.817 98.0369 121.23C97.3035 120.643 96.9369 119.771 96.9369 118.612C96.9369 117.659 97.2522 116.911 97.8829 116.368C98.5135 115.825 99.4889 115.451 100.809 115.246C99.6942 114.454 98.5795 113.765 97.4649 113.178C98.3449 112.063 99.3495 111.22 100.479 110.648C101.608 110.061 102.98 109.768 104.593 109.768C106.852 109.768 108.524 110.259 109.609 111.242C110.709 112.21 111.259 113.706 111.259 115.73V118.348ZM105.055 113.64C104.307 113.64 103.647 113.765 103.075 114.014C102.503 114.263 101.99 114.637 101.535 115.136C102.415 115.033 103.515 114.982 104.835 114.982C105.378 114.982 105.759 114.916 105.979 114.784C106.199 114.652 106.309 114.483 106.309 114.278C106.309 114.102 106.199 113.955 105.979 113.838C105.759 113.706 105.451 113.64 105.055 113.64ZM102.745 118.524C103.566 118.524 104.307 118.37 104.967 118.062C105.627 117.739 106.082 117.321 106.331 116.808V116.236C105.979 116.412 105.59 116.551 105.165 116.654C104.74 116.742 104.226 116.83 103.625 116.918L102.833 117.05C102.012 117.211 101.601 117.49 101.601 117.886C101.601 118.311 101.982 118.524 102.745 118.524ZM127.939 109.988L127.433 111.264C126.04 114.975 124.581 118.553 123.055 122C122.263 123.76 121.119 125.168 119.623 126.224C118.127 127.295 116.25 127.808 113.991 127.764C113.713 126.547 113.478 125.593 113.287 124.904C113.111 124.229 112.877 123.547 112.583 122.858C113.39 123.049 114.145 123.144 114.849 123.144C115.993 123.144 116.903 122.902 117.577 122.418C117.049 120.849 116.426 119.162 115.707 117.358C114.989 115.554 113.947 113.097 112.583 109.988H117.797C117.973 110.721 118.215 111.572 118.523 112.54C118.831 113.508 119.139 114.439 119.447 115.334C119.535 115.613 119.675 116.038 119.865 116.61C120.071 117.167 120.232 117.637 120.349 118.018L120.921 116.28C122.021 113.097 122.674 111 122.879 109.988H127.939Z" fill="#FF0096"/>
</svg>
